<?xml version="1.0" encoding="UTF-8"?>
<svg id="_レイヤー_1" data-name=" レイヤー 1" xmlns="http://www.w3.org/2000/svg" viewBox="0 0 160 160">
  <defs>
    <style>
      .cls-1 {
        stroke-width: .5px;
      }

      .cls-1, .cls-2, .cls-3, .cls-4 {
        stroke-miterlimit: 10;
      }

      .cls-1, .cls-3 {
        stroke: #f4403f;
      }

      .cls-1, .cls-5 {
        fill: #f4403f;
      }

      .cls-6, .cls-7, .cls-4 {
        isolation: isolate;
      }

      .cls-2 {
        stroke-width: .25px;
      }

      .cls-2, .cls-7, .cls-8, .cls-3 {
        fill: #fff;
      }

      .cls-2, .cls-4 {
        stroke: #fff;
      }

      .cls-7, .cls-4 {
        font-family: Arial-BoldMT, Arial;
        font-size: 30px;
        font-weight: 700;
      }

      .cls-3 {
        stroke-width: 5px;
      }

      .cls-9 {
        letter-spacing: -.02em;
      }

      .cls-4 {
        fill: none;
        stroke-width: .75px;
      }
    </style>
  </defs>
  <g>
    <rect class="cls-5" width="160" height="160" rx="30.21" ry="30.21"/>
    <g class="cls-6">
      <text class="cls-7" transform="translate(15.96 135.23)"><tspan x="0" y="0">SPODD</tspan><tspan class="cls-9" x="106.68" y="0">Y</tspan></text>
      <text class="cls-4" transform="translate(15.96 135.23)"><tspan x="0" y="0">SPODD</tspan><tspan class="cls-9" x="106.68" y="0">Y</tspan></text>
    </g>
  </g>
  <g>
    <g>
      <g>
        <g>
          <polygon class="cls-2" points="44.99 93.59 42.64 107.72 63.66 93.59 79.61 93.59 114.08 93.59 115.66 92.01 118.94 88.73 121.62 84.62 123.97 81.16 124.96 78.07 125.95 73.37 126.45 69.29 125.83 64.1 124.59 59.15 121.13 54.82 117.5 52.05 112.65 49.86 81.56 42.28 79.92 42.01 79.04 41.05 78.49 39.68 78.56 38.59 80.61 35.24 81.7 34.15 83.48 33.54 123.58 33.81 132.26 17.96 79.79 18.3 75.83 19.12 73.09 20.28 69.4 22.33 66.81 24.18 64.9 26.43 62.78 28.96 61.27 32.1 59.77 35.65 58.68 39.27 58.41 42.07 58.47 45.76 59.09 47.95 60.59 50.75 62.85 52.8 65.85 54.44 68.72 55.6 86.55 60.45 102.4 64.82 98.64 69.13 76.99 69.4 62.12 67.47 45.86 65.89 38.47 76.25 29.74 93.6 44.99 93.59"/>
          <path class="cls-5" d="M45.8,65.76c-2.46,3.46-4.93,6.91-7.39,10.37,12.2-.09,24.39-.19,36.59-.28l.99-3.7h-10.73s-19.46-6.39-19.46-6.39Z"/>
          <ellipse class="cls-3" cx="97.38" cy="78.86" rx="20.55" ry="19.96"/>
        </g>
        <polygon class="cls-1" points="104.2 62.73 105.56 67.08 106.68 70.53 107.56 73.81 107.56 83.83 107.16 87.19 105.24 92.03 103.32 95.65 97.89 97.7 101.08 92.77 103.56 87.19 104.07 84.99 104.07 83.67 101.48 83.87 100.62 86.31 99.03 89.04 96.18 91.69 91.37 94.5 86.29 96.58 82.48 93.59 87.88 92.36 92.27 90.1 95.55 87.6 97.01 85.73 97.46 84.46 97.46 83.56 89.67 83.56 86.91 83.36 84.08 83.16 80.64 82.6 75.83 81.5 76.03 77.93 80.54 78.96 84.05 79.46 87.65 79.86 97.76 80 97.76 78.5 96.91 76.73 95.81 74.99 94.22 73.46 92.14 71.73 90.25 70.49 88.14 69.33 86.26 68.53 84.02 67.66 82.33 66.99 80.67 66.59 84.89 63.43 86.97 64.26 89.71 65.54 91.96 66.84 93.84 68.02 95.61 69.34 97.13 70.79 98.52 72.29 99.67 73.91 100.56 75.56 101.12 77.06 101.48 78.62 101.71 79.77 104.66 79.85 104.52 76.41 104.31 73.85 103.5 71.05 102.47 68.27 101.39 65.96 99.69 63.02 98.46 61.52 97.27 60.11 104.2 62.73"/>
      </g>
      <polygon class="cls-5" points="112.24 68.59 109.52 71.92 107.82 75.42 107.49 80.2 107.52 83.94 108.74 86.97 111.1 89.43 112.5 90.71 114.97 87.2 113.57 85.52 112.82 83.25 115.58 82.86 115.82 78.83 112.51 79.13 112.19 77.29 113.56 73.62 114.56 72.72 112.24 68.59"/>
    </g>
    <polygon class="cls-8" points="51.84 43.28 55.2 53.3 30.03 43.28 51.84 43.28"/>
    <polygon class="cls-8" points="58.56 26.37 53.55 34.03 29.74 29.32 58.56 26.37"/>
  </g>
</svg>