<?xml version="1.0" encoding="UTF-8"?>
<svg id="_レイヤー_1" data-name="レイヤー 1" xmlns="http://www.w3.org/2000/svg" viewBox="0 0 160 160">
  <defs>
    <style>
      .cls-1 {
        stroke-width: .5px;
      }

      .cls-1, .cls-2, .cls-3, .cls-4 {
        stroke-miterlimit: 10;
      }

      .cls-1, .cls-4 {
        stroke: #f4403f;
      }

      .cls-1, .cls-5 {
        fill: #f4403f;
      }

      .cls-2 {
        stroke-width: .25px;
      }

      .cls-2, .cls-6, .cls-3, .cls-4 {
        fill: #fff;
      }

      .cls-2, .cls-3 {
        stroke: #fff;
      }

      .cls-3 {
        font-family: AcuminConcept-Semibold, 'Acumin Variable Concept';
        font-size: 30px;
        font-variation-settings: 'wght' 600, 'wdth' 100, 'slnt' 0;
        font-weight: 600;
        stroke-width: .75px;
      }

      .cls-4 {
        stroke-width: 5px;
      }
    </style>
  </defs>
  <g>
    <rect class="cls-5" y=".38" width="160" height="160" rx="30.21" ry="30.21"/>
    <text class="cls-3" transform="translate(18.96 135.61)"><tspan x="0" y="0">SPODDY</tspan></text>
  </g>
  <g>
    <g>
      <g>
        <g>
          <polygon class="cls-2" points="43.99 93.97 41.64 108.1 62.66 93.97 78.61 93.97 113.08 93.97 114.66 92.39 117.94 89.11 120.62 85 122.97 81.54 123.96 78.45 124.95 73.75 125.45 69.67 124.83 64.48 123.59 59.53 120.13 55.2 116.5 52.43 111.65 50.24 80.56 42.66 78.92 42.39 78.04 41.43 77.49 40.06 77.56 38.97 79.61 35.62 80.7 34.53 82.48 33.92 122.58 34.19 131.26 18.34 78.79 18.68 74.83 19.5 72.09 20.66 68.4 22.71 65.81 24.56 63.9 26.81 61.78 29.34 60.27 32.48 58.77 36.03 57.68 39.65 57.41 42.45 57.47 46.14 58.09 48.33 59.59 51.13 61.85 53.18 64.85 54.82 67.72 55.98 85.55 60.83 101.4 65.2 97.64 69.51 75.99 69.78 61.12 67.85 44.86 66.27 37.47 76.63 28.74 93.98 43.99 93.97"/>
          <path class="cls-5" d="M44.8,66.14c-2.46,3.46-4.93,6.91-7.39,10.37,12.2-.09,24.39-.19,36.59-.28l.99-3.7h-10.73l-19.46-6.39Z"/>
          <ellipse class="cls-4" cx="96.38" cy="79.24" rx="20.55" ry="19.96"/>
        </g>
        <polygon class="cls-1" points="103.2 63.11 104.56 67.46 105.68 70.91 106.56 74.19 106.56 84.21 106.16 87.57 104.24 92.41 102.32 96.03 96.89 98.08 100.08 93.15 102.56 87.57 103.07 85.37 103.07 84.05 100.48 84.25 99.62 86.69 98.03 89.42 95.18 92.07 90.37 94.88 85.29 96.96 81.48 93.97 86.88 92.74 91.27 90.48 94.55 87.98 96.01 86.11 96.46 84.84 96.46 83.94 88.67 83.94 85.91 83.74 83.08 83.54 79.64 82.98 74.83 81.88 75.03 78.31 79.54 79.34 83.05 79.84 86.65 80.24 96.76 80.38 96.76 78.88 95.91 77.11 94.81 75.37 93.22 73.84 91.14 72.11 89.25 70.87 87.14 69.71 85.26 68.91 83.02 68.04 81.33 67.37 79.67 66.97 83.89 63.81 85.97 64.64 88.71 65.92 90.96 67.22 92.84 68.4 94.61 69.72 96.13 71.17 97.52 72.67 98.67 74.29 99.56 75.94 100.12 77.44 100.48 79 100.71 80.15 103.66 80.23 103.52 76.79 103.31 74.23 102.5 71.43 101.47 68.65 100.39 66.34 98.69 63.4 97.46 61.9 96.27 60.49 103.2 63.11"/>
      </g>
      <polygon class="cls-5" points="111.24 68.97 108.52 72.3 106.82 75.8 106.49 80.58 106.52 84.32 107.74 87.35 110.1 89.81 111.5 91.09 113.97 87.58 112.57 85.9 111.82 83.63 114.58 83.24 114.82 79.21 111.51 79.51 111.19 77.67 112.56 74 113.56 73.1 111.24 68.97"/>
    </g>
    <polygon class="cls-6" points="50.84 43.66 54.2 53.68 29.03 43.66 50.84 43.66"/>
    <polygon class="cls-6" points="57.56 26.75 52.55 34.41 28.74 29.7 57.56 26.75"/>
  </g>
</svg>